<?xml version="1.0" standalone="no"?>
<!DOCTYPE svg PUBLIC "-//W3C//DTD SVG 20010904//EN"
 "http://www.w3.org/TR/2001/REC-SVG-20010904/DTD/svg10.dtd">
<svg version="1.0" xmlns="http://www.w3.org/2000/svg"
 width="1300.000000pt" height="1390.000000pt" viewBox="0 0 1300.000000 1390.000000"
 preserveAspectRatio="xMidYMid meet">
<metadata>
Created by potrace 1.16, written by Peter Selinger 2001-2019
</metadata>
<g transform="translate(0.000000,1390.000000) scale(0.100000,-0.100000)"
fill="#000000" stroke="none">
<path d="M9004 12105 c-46 -27 -95 -34 -419 -62 -180 -15 -460 -17 -2847 -20
l-2647 -4 112 -112 c85 -84 136 -146 206 -252 172 -258 219 -311 241 -276 4 7
11 11 16 10 27 -5 52 4 76 26 15 14 32 25 37 25 6 0 19 9 30 21 11 12 24 18
29 15 6 -3 17 1 25 9 9 8 20 15 26 15 6 0 11 5 11 10 0 6 6 10 13 9 26 -3 56
13 50 28 -7 18 49 -16 155 -94 83 -61 130 -103 130 -118 0 -5 9 -12 19 -16 11
-4 2 -8 -27 -11 -25 -3 -65 -15 -89 -27 -25 -11 -51 -21 -58 -21 -7 0 -13 -4
-13 -10 0 -5 -7 -10 -15 -10 -14 0 -53 -18 -65 -30 -3 -3 -17 -11 -32 -19 -16
-8 -28 -20 -28 -26 0 -6 -23 -18 -50 -25 -28 -7 -50 -17 -50 -20 0 -4 -10 -5
-23 -3 -13 3 -31 -4 -44 -17 -13 -11 -23 -16 -23 -10 0 6 -4 8 -10 5 -14 -9
-12 -97 5 -260 8 -77 20 -192 26 -255 8 -80 11 -954 11 -2875 -1 -2451 -3
-2780 -17 -2935 -27 -299 -42 -387 -121 -710 -80 -324 -126 -440 -277 -696
-77 -129 -79 -131 -202 -199 l-80 -44 185 -2 c170 -1 439 -13 398 -17 -11 -1
-18 -10 -18 -22 0 -14 11 -22 40 -30 22 -6 40 -15 40 -20 0 -7 783 -10 2158
-10 2137 0 2454 -4 2917 -35 297 -20 324 -21 318 -11 -3 4 4 5 16 1 11 -3 26
-3 33 1 9 6 5 10 -12 15 -25 7 -25 7 4 8 22 1 27 5 22 17 -5 14 -4 15 8 5 18
-15 35 -7 69 35 43 51 67 145 97 369 5 39 12 86 16 105 4 19 8 53 10 75 3 54
31 258 49 370 8 50 22 144 30 210 31 248 53 391 64 418 8 20 8 26 0 21 -8 -4
-9 0 -4 15 6 19 2 21 -28 21 l-34 0 -5 143 c-5 123 -1 175 29 392 18 138 36
277 39 310 l6 60 -65 -110 c-36 -60 -79 -132 -96 -159 -17 -26 -31 -58 -31
-70 0 -17 -2 -18 -11 -6 -8 12 -9 10 -4 -7 4 -13 0 -35 -9 -50 -8 -16 -33 -67
-55 -115 l-40 -86 -2 -151 c0 -90 -5 -151 -10 -151 -6 0 -7 5 -4 11 4 6 -1 5
-13 -2 -39 -24 -52 -6 -52 73 -1 66 -2 71 -15 54 -9 -12 -15 -42 -15 -76 0
-55 0 -56 -31 -58 -42 -3 -42 -3 -85 -75 -73 -122 -238 -364 -338 -496 -56
-73 -110 -146 -121 -162 -11 -16 -26 -31 -32 -33 -40 -16 -294 -38 -348 -31
-53 7 -57 9 -30 16 17 3 23 7 14 8 -15 1 -39 59 -39 94 0 9 -9 23 -21 31 -13
9 -18 19 -14 27 5 7 4 10 -3 5 -10 -6 -32 49 -32 82 0 6 -5 12 -10 12 -6 0 -9
3 -9 8 4 24 -3 40 -18 38 -13 -1 -19 9 -23 34 -3 24 -12 38 -27 45 -22 9 -32
35 -15 35 14 0 14 80 0 81 -7 0 -4 4 7 9 17 6 15 9 -16 15 -23 4 -127 -4 -270
-22 l-234 -28 -919 0 c-727 0 -920 3 -923 13 -3 8 7 12 31 12 35 0 35 1 28 33
-4 17 -7 570 -7 1227 0 1100 1 1200 17 1257 41 146 126 225 273 254 29 6 225
10 464 9 384 -1 415 0 434 17 11 10 18 13 14 8 -3 -6 -2 -17 3 -25 7 -11 11
-3 16 28 6 42 7 42 48 42 48 0 66 13 66 48 l0 25 -25 -27 c-31 -33 -48 -33
-71 2 -16 23 -19 47 -19 177 l0 150 35 0 35 0 3 -137 c2 -130 4 -138 22 -138
19 0 20 7 20 140 l0 140 41 0 41 0 -4 -227 -3 -228 46 3 c25 2 93 -3 150 -12
58 -8 116 -13 129 -10 18 4 21 3 11 -4 -10 -7 -2 -12 33 -20 26 -5 55 -8 66
-5 10 3 29 0 41 -7 23 -11 23 -10 5 4 -24 19 -17 21 15 3 47 -24 52 -29 40
-37 -7 -3 1 -7 17 -7 64 0 251 -158 358 -303 35 -47 79 -106 99 -132 41 -54
65 -106 65 -143 0 -14 6 -25 14 -25 9 0 22 42 41 143 28 143 45 191 45 127 0
-19 4 -30 8 -24 4 6 21 19 39 28 36 18 67 76 78 147 4 24 15 81 26 127 11 45
17 87 14 92 -3 5 2 30 11 55 8 26 17 66 19 89 2 22 11 86 20 141 9 55 18 114
21 132 2 18 11 60 19 95 8 35 21 106 29 158 8 52 22 136 31 185 26 153 19 223
-27 273 l-22 22 -19 -27 c-13 -19 -17 -21 -12 -8 7 22 55 339 55 368 0 16 -2
16 -30 2 -45 -23 -114 -34 -334 -50 -349 -27 -725 -35 -1653 -35 -849 0 -903
1 -912 18 -8 15 -4 17 37 15 26 -1 39 0 30 3 -16 5 -17 61 -14 912 2 789 5
914 18 962 46 161 129 237 288 265 19 3 433 5 919 5 740 0 899 -3 978 -16 52
-8 128 -15 170 -16 51 0 71 -4 62 -10 -10 -7 -8 -8 8 -5 13 3 25 2 28 -2 2 -4
50 -13 107 -20 65 -8 122 -22 155 -37 28 -13 55 -24 60 -23 4 0 -14 11 -42 25
-73 35 -42 29 50 -9 44 -19 79 -39 78 -45 -2 -6 3 -9 11 -6 32 12 236 -114
367 -225 100 -86 178 -173 265 -296 35 -49 68 -95 73 -101 5 -6 12 -20 15 -32
7 -22 21 -29 29 -14 3 4 -1 75 -9 157 -16 185 -17 246 -4 225 8 -12 10 -12 11
5 l0 20 10 -20 c7 -15 8 -9 4 23 -3 28 -1 42 6 42 9 0 10 37 5 138 -3 75 -8
151 -11 167 -7 42 -26 248 -31 320 -1 33 -5 78 -7 100 -3 22 -10 92 -16 155
-6 63 -16 151 -21 195 -5 44 -14 125 -20 180 -9 77 -17 107 -35 131 -13 16
-25 41 -28 55 -4 21 -4 21 -6 -6 -4 -59 -18 6 -35 170 -10 88 -21 175 -24 192
l-7 33 -41 -25z m-3991 -666 c12 -7 25 -17 29 -23 12 -17 10 -198 -2 -191 -5
3 -10 1 -10 -4 0 -7 -7 -7 -21 1 -17 10 -23 10 -26 1 -3 -7 -9 -13 -14 -13 -6
0 -7 4 -4 10 3 5 0 7 -9 4 -19 -7 -39 31 -32 61 3 13 22 36 41 51 36 27 47 64
20 64 -8 0 -15 -6 -15 -14 0 -8 -10 -13 -25 -13 -33 0 -34 38 -2 60 27 19 42
20 70 6z m2981 -1 c-5 -7 -3 -8 5 -4 7 5 21 0 32 -10 16 -14 19 -31 19 -106 0
-64 -3 -88 -12 -88 -9 0 -8 -4 2 -10 9 -6 10 -10 3 -10 -6 0 -19 8 -29 17 -15
16 -17 16 -29 0 -7 -9 -17 -17 -22 -17 -20 0 -42 36 -39 63 4 31 44 80 61 73
6 -2 12 9 13 25 2 20 -2 29 -13 29 -8 0 -15 -6 -15 -13 0 -7 -12 -14 -26 -15
-21 -2 -25 2 -22 21 2 12 14 30 28 39 28 20 55 24 44 6z m-2981 -2599 c34 -18
37 -28 37 -126 0 -96 -9 -116 -38 -90 -15 13 -19 13 -30 1 -25 -27 -55 -8 -58
38 -3 37 8 55 49 81 27 18 36 50 16 62 -6 4 -13 -2 -16 -14 -7 -28 -53 -30
-53 -3 0 21 33 56 43 45 4 -3 7 -1 7 5 0 15 15 15 43 1z m1241 -1155 c14 -5
16 -34 16 -215 l0 -209 -40 0 -40 0 0 208 c0 115 3 212 7 215 8 9 36 9 57 1z
m-145 -87 c37 -19 51 -77 51 -214 l0 -123 -35 0 c-22 0 -34 4 -32 12 4 21 -30
20 -36 -2 -3 -14 -13 -20 -32 -20 -22 0 -30 8 -47 47 -19 43 -20 51 -7 87 9
27 27 49 54 67 22 15 43 26 46 23 3 -2 6 13 5 34 -1 42 -29 53 -34 15 -3 -19
-10 -23 -43 -23 -21 0 -39 2 -39 5 0 2 7 22 16 44 22 56 79 77 133 48z m320 0
c37 -19 51 -77 51 -214 l0 -123 -35 0 c-24 0 -35 5 -35 15 0 22 -27 18 -33 -5
-7 -28 -51 -26 -70 3 -22 34 -29 80 -17 113 12 31 51 70 81 79 20 7 35 46 25
70 -7 20 -36 8 -36 -16 0 -14 -7 -19 -25 -19 -14 0 -25 6 -25 13 0 8 -3 7 -10
-3 -16 -26 -21 -5 -7 34 20 58 81 82 136 53z m159 -3 c9 -11 44 -15 37 -4 -8
13 13 22 34 15 10 -3 21 -14 24 -24 2 -10 11 -18 20 -18 8 0 13 5 11 12 -7 16
40 38 64 31 31 -10 35 -29 40 -193 l4 -153 -41 0 -41 0 0 145 c0 138 -1 145
-20 145 -11 0 -20 -7 -20 -15 0 -8 -6 -15 -12 -16 -10 0 -10 -2 0 -6 9 -3 12
-39 12 -129 l0 -124 -40 0 -39 0 -3 143 c-2 86 -7 142 -13 142 -6 0 -11 -56
-13 -142 l-3 -143 -39 0 -40 0 0 169 c0 126 3 171 13 174 18 8 57 2 65 -9z
m-1574 -1355 c14 -7 23 -16 20 -20 -3 -5 0 -9 5 -9 14 0 15 -186 1 -195 -5 -3
-19 0 -31 7 -17 10 -23 10 -26 1 -3 -7 -9 -13 -14 -13 -6 0 -7 4 -4 10 3 5 0
7 -9 4 -16 -6 -36 23 -36 52 0 9 17 33 38 53 45 41 61 82 31 74 -11 -3 -19
-12 -19 -19 0 -19 -39 -18 -47 2 -6 17 33 64 53 64 7 0 24 -5 38 -11z m4361
-1239 c42 -16 55 -63 57 -210 l3 -130 -36 0 c-29 0 -38 5 -42 21 l-6 20 -20
-20 c-36 -36 -69 -23 -91 35 -19 48 5 100 66 144 31 22 44 38 44 56 0 17 -5
24 -20 24 -13 0 -20 -7 -20 -20 0 -16 -7 -20 -34 -20 -42 0 -46 5 -34 48 13
49 76 74 133 52z m-4362 -1361 c34 -18 37 -28 37 -125 0 -72 -3 -93 -15 -98
-8 -3 -19 3 -25 12 -9 16 -11 16 -20 0 -22 -37 -62 -14 -66 36 -3 31 2 40 36
68 43 34 51 62 22 77 -15 8 -18 6 -18 -12 1 -15 -6 -23 -21 -25 -17 -3 -23 2
-23 16 0 21 33 56 43 45 4 -3 7 -1 7 5 0 15 15 15 43 1z m3010 -13 c26 -22 27
-27 27 -120 0 -77 -3 -96 -15 -96 -7 0 -19 8 -25 18 -10 16 -10 16 -20 0 -22
-37 -70 -8 -70 42 0 33 46 84 68 75 7 -3 11 -1 8 3 -3 5 2 21 10 37 8 15 12
30 9 33 -3 3 -5 0 -5 -6 0 -7 -9 -12 -20 -12 -11 0 -20 -6 -20 -12 0 -7 -11
-14 -25 -14 -15 -1 -25 3 -25 12 0 8 9 14 20 14 11 0 20 4 20 10 0 5 -8 7 -17
4 -13 -4 -11 0 6 15 30 27 40 26 74 -3z"/>
<path d="M0 450 l0 -450 6500 0 6500 0 0 450 0 450 -6500 0 -6500 0 0 -450z
m780 50 l0 -200 -35 0 -35 0 0 200 0 200 35 0 35 0 0 -200z m-115 105 c24 -23
25 -30 25 -149 0 -68 3 -131 6 -140 5 -13 -1 -16 -30 -16 -27 0 -36 4 -36 17
0 15 -2 14 -20 -2 -22 -20 -63 -23 -85 -5 -8 6 -17 28 -21 47 -9 50 15 94 70
129 38 23 46 34 44 54 -4 31 -32 33 -36 3 -3 -19 -10 -23 -38 -23 -31 0 -34 2
-34 30 0 46 39 80 90 80 30 0 47 -6 65 -25z m273 19 c41 -11 52 -51 52 -194
l0 -130 -29 0 c-16 0 -31 6 -34 13 -4 10 -7 10 -18 0 -18 -18 -74 -16 -93 3
-21 20 -21 93 -1 122 9 12 36 36 61 53 34 23 44 36 42 52 -4 29 -30 28 -43 0
-7 -17 -18 -23 -44 -23 -32 0 -33 1 -27 33 11 59 66 89 134 71z m234 -13 c12
-19 12 -19 36 0 30 23 55 24 76 3 13 -13 16 -42 16 -165 l0 -149 -30 0 -30 0
0 113 c0 123 -6 157 -25 157 -21 0 -25 -25 -25 -151 l0 -119 -35 0 -34 0 -3
133 c-3 109 -6 132 -18 132 -12 0 -15 -23 -18 -132 l-3 -133 -34 0 -35 0 0
160 0 160 35 0 c21 0 35 -5 35 -12 0 -8 6 -6 17 5 23 23 60 22 75 -2z m220
-121 c3 -121 4 -125 26 -128 22 -3 22 -3 22 127 0 80 4 131 10 132 59 7 55 20
58 -166 2 -94 0 -184 -3 -201 -7 -39 -38 -54 -110 -54 -54 0 -55 0 -55 30 0
27 3 30 34 30 49 0 66 9 66 35 0 23 -1 23 -30 9 -36 -18 -66 -6 -80 32 -6 14
-10 83 -10 154 l0 129 28 3 c15 2 30 1 34 -2 4 -3 9 -62 10 -130z"/>
</g>
</svg>
